<?xml version="1.0" standalone="no"?>
<!DOCTYPE svg PUBLIC "-//W3C//DTD SVG 20010904//EN"
 "http://www.w3.org/TR/2001/REC-SVG-20010904/DTD/svg10.dtd">
<svg version="1.0" xmlns="http://www.w3.org/2000/svg"
 width="500.000000pt" height="500.000000pt" viewBox="0 0 500.000000 500.000000"
 preserveAspectRatio="xMidYMid meet">
<metadata>
Created by potrace 1.14, written by Peter Selinger 2001-2017
</metadata>
<g transform="translate(0.000000,500.000000) scale(0.100000,-0.100000)"
fill="#000000" stroke="none">
<path d="M2486 3817 c-23 -95 -109 -271 -208 -422 -78 -120 -89 -140 -81 -149
3 -3 -1 -6 -9 -6 -31 0 -32 -55 -1 -73 15 -9 18 -37 3 -37 -5 0 -10 -8 -10
-18 0 -18 55 -46 71 -36 13 7 11 1 -11 -58 -14 -38 -16 -47 -5 -34 14 19 15
18 15 -17 0 -20 -4 -37 -8 -37 -4 0 -9 -16 -10 -35 -2 -20 2 -35 8 -35 8 0 10
-43 7 -137 -6 -160 -9 -196 -20 -204 -4 -3 -9 -62 -10 -131 -1 -69 -6 -124
-10 -121 -5 3 -11 -5 -14 -16 -5 -20 -6 -21 -20 -4 -16 20 -14 12 6 -29 8 -15
18 -25 22 -22 5 3 6 -1 4 -8 -5 -13 67 -120 84 -126 11 -4 48 59 130 226 122
246 211 503 257 747 26 135 24 373 -4 487 -30 121 -75 234 -125 311 l-42 66
-19 -82z"/>
<path d="M2817 3209 c-3 -19 -10 -83 -16 -144 -29 -293 -153 -651 -320 -928
-28 -47 -51 -89 -51 -94 0 -15 303 -8 308 7 3 8 9 7 20 -2 12 -10 14 -10 8 0
-5 9 3 12 33 12 22 0 41 -5 44 -12 4 -10 7 -10 18 0 7 6 33 12 58 12 54 0 80
18 110 75 l21 40 -166 3 c-138 2 -165 5 -161 17 29 73 83 266 113 400 25 111
42 165 51 165 7 0 13 -6 13 -14 0 -7 13 -19 29 -26 16 -6 37 -26 46 -43 16
-31 16 -29 11 73 -8 161 -57 317 -144 459 l-21 34 -4 -34z"/>
<path d="M2126 3165 c-9 -14 -15 -25 -13 -25 2 0 13 11 25 25 12 14 18 25 13
25 -5 0 -16 -11 -25 -25z"/>
<path d="M2167 2972 c-26 -48 -69 -124 -96 -170 -140 -237 -213 -502 -197
-707 8 -90 40 -228 69 -295 27 -64 28 -91 5 -110 -20 -15 -19 -17 19 -65 43
-54 184 -191 254 -246 37 -29 30 -18 -41 66 -105 122 -152 197 -147 233 3 26
37 46 37 23 0 -6 11 -11 25 -11 18 0 25 5 25 20 0 16 8 19 56 22 l56 3 -67 84
c-127 161 -178 305 -178 496 0 187 38 325 158 573 46 94 81 172 77 172 -4 0
-28 -40 -55 -88z"/>
<path d="M2210 2950 c0 -5 5 -10 10 -10 6 0 10 5 10 10 0 6 -4 10 -10 10 -5 0
-10 -4 -10 -10z"/>
<path d="M2121 2364 c0 -11 3 -14 6 -6 3 7 2 16 -1 19 -3 4 -6 -2 -5 -13z"/>
<path d="M3184 2327 c-3 -8 -1 -25 5 -38 5 -14 8 -73 7 -132 -2 -58 1 -104 5
-101 24 15 106 185 123 257 l6 27 -70 0 c-49 0 -72 -4 -76 -13z"/>
<path d="M2140 2291 c0 -6 4 -12 8 -15 5 -3 9 1 9 9 0 8 -4 15 -9 15 -4 0 -8
-4 -8 -9z"/>
<path d="M2748 2023 c7 -3 16 -2 19 1 4 3 -2 6 -13 5 -11 0 -14 -3 -6 -6z"/>
<path d="M2535 1369 c-38 -24 -43 -43 -43 -154 l1 -90 8 62 c4 34 21 93 37
132 17 39 29 71 29 70 -1 0 -15 -9 -32 -20z"/>
</g>
</svg>
